<svg width="488" height="144" viewBox="0 0 488 144" fill="none" xmlns="http://www.w3.org/2000/svg">
<path d="M26.112 49.928V58.376H47.232V74.408H26.112V84.008H50.112V101H4.8V33.032H50.112V49.928H26.112ZM79.4558 84.872H99.9998V101H58.1438V33.032H79.4558V84.872Z" fill="#1C1714"/>
<path d="M186.384 56.36C186.384 60.648 185.392 64.552 183.408 68.072C181.424 71.528 178.48 74.28 174.576 76.328C170.736 78.376 166.064 79.4 160.56 79.4H152.112V101H130.8V33.032H160.56C168.88 33.032 175.248 35.144 179.664 39.368C184.144 43.592 186.384 49.256 186.384 56.36ZM158.16 62.6C162.576 62.6 164.784 60.52 164.784 56.36C164.784 52.2 162.576 50.12 158.16 50.12H152.112V62.6H158.16ZM225.208 90.728H202.552L199.192 101H176.824L201.688 33.032H226.264L251.032 101H228.568L225.208 90.728ZM220.024 74.696L213.88 55.784L207.736 74.696H220.024ZM277.186 84.872H297.73V101H255.874V33.032H277.186V84.872ZM337.556 101.672C331.156 101.672 325.268 100.168 319.892 97.16C314.58 94.152 310.356 89.992 307.22 84.68C304.084 79.368 302.516 73.384 302.516 66.728C302.516 60.072 304.084 54.088 307.22 48.776C310.356 43.464 314.58 39.336 319.892 36.392C325.268 33.384 331.156 31.88 337.556 31.88C343.956 31.88 349.812 33.384 355.124 36.392C360.436 39.336 364.628 43.464 367.7 48.776C370.836 54.088 372.404 60.072 372.404 66.728C372.404 73.384 370.836 79.368 367.7 84.68C364.628 89.992 360.404 94.152 355.028 97.16C349.716 100.168 343.892 101.672 337.556 101.672ZM337.556 81.8C341.78 81.8 345.044 80.456 347.348 77.768C349.652 75.016 350.804 71.336 350.804 66.728C350.804 62.056 349.652 58.376 347.348 55.688C345.044 52.936 341.78 51.56 337.556 51.56C333.268 51.56 329.972 52.936 327.668 55.688C325.364 58.376 324.212 62.056 324.212 66.728C324.212 71.336 325.364 75.016 327.668 77.768C329.972 80.456 333.268 81.8 337.556 81.8ZM433.468 33.032V49.928H415.42V101H394.108V49.928H376.252V33.032H433.468ZM460.561 49.928V58.376H481.681V74.408H460.561V84.008H484.561V101H439.249V33.032H484.561V49.928H460.561Z" fill="#1C1714"/>
</svg>
